<svg xmlns="http://www.w3.org/2000/svg" width="150" height="40" viewBox="0 0 150 40" fill="none">
  <path d="M0 4H10V8H4V18H0V4Z" fill="#7C3AED"/>
  <path d="M14 4H24C25.0609 4 26.0783 4.42143 26.8284 5.17157C27.5786 5.92172 28 6.93913 28 8V14C28 15.0609 27.5786 16.0783 26.8284 16.8284C26.0783 17.5786 25.0609 18 24 18H14V4ZM24 14V8H18V14H24Z" fill="#7C3AED"/>
  <path d="M30 4H44C45.0609 4 46.0783 4.42143 46.8284 5.17157C47.5786 5.92172 48 6.93913 48 8V18H44V14H30V18H26V8C26 6.93913 26.4214 5.92172 27.1716 5.17157C27.9217 4.42143 28.9391 4 30 4ZM44 10V8H30V10H44Z" fill="#7C3AED"/>
  <path d="M52 18V4H62C63.0609 4 64.0783 4.42143 64.8284 5.17157C65.5786 5.92172 66 6.93913 66 8C66 9.06087 65.5786 10.0783 64.8284 10.8284C64.0783 11.5786 63.0609 12 62 12H60L66 18H60.8L55 12V18H52ZM62 8H56V10H62V8Z" fill="#7C3AED"/>
  <path d="M68 4H72L78 12.6V4H82V18H78L72 9.4V18H68V4Z" fill="#7C3AED"/>
  <path d="M88 4H98C99.0609 4 100.078 4.42143 100.828 5.17157C101.579 5.92172 102 6.93913 102 8V14C102 15.0609 101.579 16.0783 100.828 16.8284C100.078 17.5786 99.0609 18 98 18H88V4ZM98 14V8H92V14H98Z" fill="#7C3AED"/>
  <path d="M106 18V4H110V18H106Z" fill="#7C3AED"/>
  
  <path d="M84 23H114.5L117 26H88L84 23Z" fill="#EC4899"/>
  <path d="M118 27L123 32H143V28H120L118 27Z" fill="#EC4899"/>
  <path d="M123 33L126 36H143V33H123Z" fill="#EC4899"/>
</svg>